<svg xmlns="http://www.w3.org/2000/svg" width="256" height="256"><path fill-opacity=".016" d="M0 128.004v128.004l128.25-.254 128.25-.254.254-127.75L257.008 0H0v128.004m.485.496c0 70.4.119 99.053.265 63.672.146-35.38.146-92.98 0-128C.604 29.153.485 58.1.485 128.5" fill="#1976D2" fill-rule="evenodd"/><path fill-opacity=".075" d="M30.5 8.575c-8.25 4.68-16.013 9.012-17.25 9.627-1.238.616-2.25 1.386-2.25 1.711 0 .326 36.004 18.593 80.009 40.594l80.009 40-15.217 7.997c-8.37 4.398-23.561 12.402-33.759 17.787-10.198 5.386-21.805 11.447-25.792 13.47L89 143.439v18.28c0 12.2.352 18.281 1.059 18.281.582 0 .738-.52.346-1.155-.45-.727-.274-.882.477-.418.69.427 19.569-8.71 44.905-21.733a32126.317 32126.317 0 0176.463-39.167c18.012-9.183 32.75-17.108 32.75-17.611C245 99.05 47.838-.037 46.252.033 45.838.051 38.75 3.895 30.5 8.575M51 177.994C51 250.11 51.126 256 52.665 256c1.75 0 44.958-21.899 111.335-56.427 21.725-11.301 49.512-25.616 61.749-31.81l22.249-11.263.001-26.11.001-26.111-16.75 8.475c-9.213 4.661-39.025 19.848-66.25 33.75-46.05 23.515-77.475 39.502-79.25 40.318-.413.19-.75-15.44-.75-34.733v-35.078L68 108.5l-17-8.511v78.005" fill="#1976D2" fill-rule="evenodd"/><path fill-opacity=".048" d="M44 2.259c0 .472-.45.581-1 .241-.55-.34-1-.066-1 .608 0 .674-.263.963-.583.642-.321-.321-1.463.296-2.537 1.37-1.074 1.074-2.387 1.685-2.916 1.357-.53-.327-.964-.13-.964.438 0 1.298-5.525 4.227-6.373 3.378-.345-.344-.627-.075-.627.599 0 .674-.45.948-1 .608-.55-.34-1-.153-1 .415 0 1.298-5.525 4.227-6.373 3.378-.345-.344-.627-.026-.627.707s-.263 1.071-.583.75C17.688 16.022 14 19.62 14 21.059c0 .582.45.781 1 .441s1-.115 1 .5.45.84 1 .5c.55-.34 1-.115 1 .5s.45.84 1 .5c.55-.34 1-.115 1 .5s.45.84 1 .5c.55-.34 1-.115 1 .5s.45.84 1 .5c.55-.34 1-.115 1 .5s.45.84 1 .5c.55-.34 1-.115 1 .5s.45.84 1 .5c.55-.34 1-.115 1 .5s.45.84 1 .5c.55-.34 1-.115 1 .5s.45.84 1 .5c.55-.34 1-.115 1 .5s.45.84 1 .5c.55-.34 1-.115 1 .5s.45.84 1 .5c.55-.34 1-.115 1 .5s.45.84 1 .5c.55-.34 1-.115 1 .5s.45.84 1 .5c.55-.34 1-.115 1 .5s.45.84 1 .5c.55-.34 1-.115 1 .5s.45.84 1 .5c.55-.34 1-.115 1 .5s.45.84 1 .5c.55-.34 1-.115 1 .5s.45.84 1 .5c.55-.34 1-.115 1 .5s.45.84 1 .5c.55-.34 1-.115 1 .5s.45.84 1 .5c.55-.34 1-.115 1 .5s.45.84 1 .5c.55-.34 1-.115 1 .5s.45.84 1 .5c.55-.34 1-.115 1 .5s.45.84 1 .5c.55-.34 1-.115 1 .5s.45.84 1 .5c.55-.34 1-.115 1 .5s.45.84 1 .5c.55-.34 1-.115 1 .5s.45.84 1 .5c.55-.34 1-.115 1 .5s.45.84 1 .5c.55-.34 1-.115 1 .5s.45.84 1 .5c.55-.34 1-.115 1 .5s.45.84 1 .5c.55-.34 1-.115 1 .5s.45.84 1 .5c.55-.34 1-.115 1 .5s.45.84 1 .5c.55-.34 1-.115 1 .5s.45.84 1 .5c.55-.34 1-.115 1 .5s.45.84 1 .5c.55-.34 1-.115 1 .5s.45.84 1 .5c.55-.34 1-.115 1 .5s.45.84 1 .5c.55-.34 1-.115 1 .5s.45.84 1 .5c.55-.34 1-.115 1 .5s.45.84 1 .5c.55-.34 1-.115 1 .5s.45.84 1 .5c.55-.34 1-.115 1 .5s.45.84 1 .5c.55-.34 1-.115 1 .5s.45.84 1 .5c.55-.34 1-.115 1 .5s.45.84 1 .5c.55-.34 1-.115 1 .5s.45.84 1 .5c.55-.34 1-.115 1 .5s.45.84 1 .5c.55-.34 1-.115 1 .5s.45.84 1 .5c.55-.34 1-.115 1 .5s.45.84 1 .5c.55-.34 1-.115 1 .5s.45.84 1 .5c.55-.34 1-.115 1 .5s.45.84 1 .5c.55-.34 1-.115 1 .5s.45.84 1 .5c.55-.34 1-.115 1 .5s.45.84 1 .5c.55-.34 1-.115 1 .5s.45.84 1 .5c.55-.34 1-.115 1 .5s.45.84 1 .5c.55-.34 1-.115 1 .5s.45.84 1 .5c.55-.34 1-.115 1 .5s.45.84 1 .5c.55-.34 1-.115 1 .5s.45.84 1 .5c.55-.34 1-.115 1 .5s.45.84 1 .5c.55-.34 1-.115 1 .5s.45.84 1 .5c.55-.34 1-.115 1 .5s.45.84 1 .5c.55-.34 1-.115 1 .5s.45.84 1 .5c.55-.34 1-.115 1 .5s.45.84 1 .5c.55-.34 1-.115 1 .5s.45.84 1 .5c.55-.34 1-.115 1 .5s.45.84 1 .5c.55-.34 1-.115 1 .5s.45.84 1 .5c.55-.34 1-.115 1 .5s.45.84 1 .5c.55-.34 1-.115 1 .5s.45.84 1 .5c.55-.34 1-.115 1 .5s.45.84 1 .5c.55-.34 1-.115 1 .5s.45.84 1 .5c.55-.34 1-.115 1 .5s.45.84 1 .5c.55-.34 1-.115 1 .5s.45.84 1 .5c.55-.34 1-.115 1 .5s.45.84 1 .5c.55-.34 1-.115 1 .5s.45.84 1 .5c.55-.34 1-.115 1 .5s.45.84 1 .5c.55-.34 1-.115 1 .5s.45.84 1 .5c.55-.34 1-.115 1 .5s.45.84 1 .5c.55-.34 1-.115 1 .5s.45.84 1 .5c.55-.34 1-.115 1 .5s.45.84 1 .5c.55-.34 1-.115 1 .5s.45.84 1 .5c.55-.34 1-.115 1 .5s.45.84 1 .5c.55-.34 1-.115 1 .5s.45.84 1 .5c.55-.34 1-.115 1 .5s.403.869.895.565c1.086-.671 1.982 1.442 1.364 3.216-.552 1.584-9.782 6.363-10.637 5.507-.342-.342-.622-.07-.622.604 0 .674-.45.948-1 .608-.55-.34-1-.115-1 .5s-.45.84-1 .5c-.55-.34-1-.115-1 .5s-.45.84-1 .5c-.55-.34-1-.115-1 .5s-.45.84-1 .5c-.55-.34-1-.115-1 .5s-.45.84-1 .5c-.55-.34-1-.115-1 .5s-.45.84-1 .5c-.55-.34-1-.115-1 .5s-.45.84-1 .5c-.55-.34-1-.115-1 .5s-.45.84-1 .5c-.55-.34-1-.115-1 .5s-.453.838-1.007.496c-.554-.343-1.276.078-1.605.935-.329.857-1 1.309-1.493 1.004-.492-.304-.895-.05-.895.565s-.45.84-1 .5c-.55-.34-1-.066-1 .608 0 .674-.279.947-.619.606-.341-.34-1.277.039-2.081.843-.804.804-1.875 1.206-2.381.893-.505-.312-.919-.065-.919.55s-.45.84-1 .5c-.55-.34-1-.066-1 .608 0 .674-.263.963-.583.642-.321-.321-1.463.296-2.537 1.37-1.074 1.074-2.387 1.685-2.916 1.357-.53-.327-.964-.092-.964.523s-.45.84-1 .5c-.55-.34-1-.115-1 .5s-.45.84-1 .5c-.55-.34-1-.115-1 .5s-.45.84-1 .5c-.55-.34-1-.115-1 .5s-.45.84-1 .5c-.55-.34-1-.115-1 .5s-.45.84-1 .5c-.55-.34-1-.115-1 .5s-.403.869-.895.565c-.493-.305-1.168.156-1.501 1.024-.333.867-1.167 1.388-1.855 1.156-.687-.231-1.845.294-2.573 1.167-1.061 1.273-1.195 1.29-.676.088.433-1.001.175-.923-.775.234-.782.954-1.716 1.442-2.074 1.084-.358-.358-.651-.1-.651.574 0 .674-.45.948-1 .608-.55-.34-1-.115-1 .5s-.45.84-1 .5c-.55-.34-1-.115-1 .5s-.45.84-1 .5c-.55-.34-1-.115-1 .5s-.45.84-1 .5c-.55-.34-1-.115-1 .5s-.338.909-.75.653-.591 7.705-.397 17.691c.194 9.986.57 17.591.835 16.9.266-.691.894-1.002 1.397-.691.503.311.915.062.915-.553s.45-.84 1-.5c.55.34 1 .115 1-.5s.45-.84 1-.5c.55.34 1 .115 1-.5s.45-.84 1-.5c.55.34 1 .115 1-.5s.45-.84 1-.5c.55.34 1 .115 1-.5s.45-.84 1-.5c.55.34 1 .115 1-.5s.45-.84 1-.5c.55.34 1 .115 1-.5s.45-.84 1-.5c.55.34 1 .115 1-.5s.45-.84 1-.5c.55.34 1 .115 1-.5s.45-.84 1-.5c.55.34 1 .066 1-.608 0-.674.262-.963.583-.642.321.321 1.481-.314 2.578-1.411 1.096-1.096 2.657-1.739 3.468-1.428.947.364 1.219.151.759-.592-.483-.781-.157-.944 1-.5.944.362 1.482.279 1.195-.184-.286-.464.619-1.362 2.012-1.996 1.999-.911 2.398-.889 1.895.103-.351.692.002.477.785-.476.782-.954 1.716-1.442 2.074-1.084.358.358.651.1.651-.574 0-.674.45-.948 1-.608.55.34 1 .115 1-.5s.45-.84 1-.5c.55.34 1 .115 1-.5s.45-.84 1-.5c.55.34 1 .115 1-.5s.45-.84 1-.5c.55.34 1 .115 1-.5s.45-.84 1-.5c.55.34 1 .115 1-.5s.45-.84 1-.5c.55.34 1 .115 1-.5s.45-.84 1-.5c.55.34 1 .115 1-.5s.45-.84 1-.5c.55.34 1 .115 1-.5s.45-.84 1-.5c.55.34 1 .115 1-.5s.45-.84 1-.5c.55.34 1 .115 1-.5s.45-.84 1-.5c.55.34 1 .115 1-.5s.45-.84 1-.5c.55.34 1 .115 1-.5s.45-.84 1-.5c.55.34 1 .115 1-.5s.45-.84 1-.5c.55.34 1 .145 1-.433 0-1.293 21.525-12.208 22.383-11.35.34.339.617.065.617-.609 0-.674.45-.948 1-.608.55.34 1 .115 1-.5s.45-.84 1-.5c.55.34 1 .115 1-.5s.45-.84 1-.5c.55.34 1 .115 1-.5s.45-.84 1-.5c.55.34 1 .115 1-.5s.45-.84 1-.5c.55.34 1 .115 1-.5s.45-.84 1-.5c.55.34 1 .115 1-.5s.45-.84 1-.5c.55.34 1 .115 1-.5s.45-.84 1-.5c.55.34 1 .115 1-.5s.45-.84 1-.5c.55.34 1 .066 1-.608 0-.674.293-.932.651-.574.358.358 1.292-.13 2.074-1.084.95-1.157 1.208-1.235.775-.234-.433 1.001-.175.923.775-.234.782-.954 1.716-1.442 2.074-1.084.358.358.651.1.651-.574 0-.674.45-.948 1-.608.55.34 1 .115 1-.5s.45-.84 1-.5c.55.34 1 .115 1-.5s.45-.84 1-.5c.55.34 1 .115 1-.5s.45-.84 1-.5c.55.34 1 .115 1-.5s.45-.84 1-.5c.55.34 1 .115 1-.5s.45-.84 1-.5c.55.34 1 .115 1-.5s.45-.84 1-.5c.55.34 1 .115 1-.5s.45-.84 1-.5c.55.34 1 .115 1-.5s.45-.84 1-.5c.55.34 1 .115 1-.5s.45-.84 1-.5c.55.34 1 .115 1-.5s.45-.84 1-.5c.55.34 1 .115 1-.5s.45-.84 1-.5c.55.34 1 .115 1-.5s.45-.84 1-.5c.55.34 1 .115 1-.5s.45-.84 1-.5c.55.34 1 .115 1-.5s.45-.84 1-.5c.55.34 1 .115 1-.5s.45-.84 1-.5c.55.34 1 .115 1-.5s.45-.84 1-.5c.55.34 1 .115 1-.5s.45-.84 1-.5c.55.34 1 .141 1-.441s.338-.947.75-.809c.797.266 1.25-.572 1.25-2.309 0-.582-.45-.781-1-.441s-1 .115-1-.5-.45-.84-1-.5c-.55.34-1 .115-1-.5s-.45-.84-1-.5c-.55.34-1 .115-1-.5s-.45-.84-1-.5c-.55.34-1 .115-1-.5s-.45-.84-1-.5c-.55.34-1 .115-1-.5s-.45-.84-1-.5c-.55.34-1 .115-1-.5s-.45-.84-1-.5c-.55.34-1 .115-1-.5s-.45-.84-1-.5c-.55.34-1 .115-1-.5s-.45-.84-1-.5c-.55.34-1 .115-1-.5s-.45-.84-1-.5c-.55.34-1 .115-1-.5s-.45-.84-1-.5c-.55.34-1 .115-1-.5s-.45-.84-1-.5c-.55.34-1 .115-1-.5s-.45-.84-1-.5c-.55.34-1 .115-1-.5s-.45-.84-1-.5c-.55.34-1 .115-1-.5s-.45-.84-1-.5c-.55.34-1 .115-1-.5s-.45-.84-1-.5c-.55.34-1 .115-1-.5s-.45-.84-1-.5c-.55.34-1 .115-1-.5s-.45-.84-1-.5c-.55.34-1 .115-1-.5s-.45-.84-1-.5c-.55.34-1 .115-1-.5s-.45-.84-1-.5c-.55.34-1 .115-1-.5s-.45-.84-1-.5c-.55.34-1 .115-1-.5s-.45-.84-1-.5c-.55.34-1 .115-1-.5s-.45-.84-1-.5c-.55.34-1 .115-1-.5s-.45-.84-1-.5c-.55.34-1 .115-1-.5s-.45-.84-1-.5c-.55.34-1 .115-1-.5s-.45-.84-1-.5c-.55.34-1 .115-1-.5s-.45-.84-1-.5c-.55.34-1 .115-1-.5s-.45-.84-1-.5c-.55.34-1 .115-1-.5s-.45-.84-1-.5c-.55.34-1 .115-1-.5s-.45-.84-1-.5c-.55.34-1 .115-1-.5s-.45-.84-1-.5c-.55.34-1 .115-1-.5s-.45-.84-1-.5c-.55.34-1 .115-1-.5s-.45-.84-1-.5c-.55.34-1 .115-1-.5s-.45-.84-1-.5c-.55.34-1 .115-1-.5s-.45-.84-1-.5c-.55.34-1 .115-1-.5s-.45-.84-1-.5c-.55.34-1 .115-1-.5s-.45-.84-1-.5c-.55.34-1 .115-1-.5s-.45-.84-1-.5c-.55.34-1 .115-1-.5s-.45-.84-1-.5c-.55.34-1 .115-1-.5s-.45-.84-1-.5c-.55.34-1 .115-1-.5s-.45-.84-1-.5c-.55.34-1 .115-1-.5s-.45-.84-1-.5c-.55.34-1 .115-1-.5s-.45-.84-1-.5c-.55.34-1 .115-1-.5s-.45-.84-1-.5c-.55.34-1 .115-1-.5s-.45-.84-1-.5c-.55.34-1 .115-1-.5s-.45-.84-1-.5c-.55.34-1 .115-1-.5s-.45-.84-1-.5c-.55.34-1 .115-1-.5s-.45-.84-1-.5c-.55.34-1 .115-1-.5s-.45-.84-1-.5c-.55.34-1 .115-1-.5s-.45-.84-1-.5c-.55.34-1 .115-1-.5s-.45-.84-1-.5c-.55.34-1 .115-1-.5s-.45-.84-1-.5c-.55.34-1 .115-1-.5s-.45-.84-1-.5c-.55.34-1 .115-1-.5s-.45-.84-1-.5c-.55.34-1 .115-1-.5s-.45-.84-1-.5c-.55.34-1 .115-1-.5s-.45-.84-1-.5c-.55.34-1 .115-1-.5s-.45-.84-1-.5c-.55.34-1 .115-1-.5s-.45-.84-1-.5c-.55.34-1 .115-1-.5s-.45-.84-1-.5c-.55.34-1 .115-1-.5s-.45-.84-1-.5c-.55.34-1 .115-1-.5s-.45-.84-1-.5c-.55.34-1 .115-1-.5s-.45-.84-1-.5c-.55.34-1 .115-1-.5s-.45-.84-1-.5c-.55.34-1 .115-1-.5s-.45-.84-1-.5c-.55.34-1 .115-1-.5s-.45-.84-1-.5c-.55.34-1 .115-1-.5s-.45-.84-1-.5c-.55.34-1 .115-1-.5s-.45-.84-1-.5c-.55.34-1 .115-1-.5s-.45-.84-1-.5c-.55.34-1 .115-1-.5s-.45-.84-1-.5c-.55.34-1 .115-1-.5s-.45-.84-1-.5c-.55.34-1 .115-1-.5s-.45-.84-1-.5c-.55.34-1 .115-1-.5s-.45-.84-1-.5c-.55.34-1 .115-1-.5s-.45-.84-1-.5c-.55.34-1 .115-1-.5s-.45-.84-1-.5c-.55.34-1 .115-1-.5s-.45-.84-1-.5c-.55.34-1 .115-1-.5s-.45-.84-1-.5c-.55.34-1 .115-1-.5s-.45-.84-1-.5c-.55.34-1 .115-1-.5s-.45-.84-1-.5c-.55.34-1 .115-1-.5s-.45-.84-1-.5c-.55.34-1 .115-1-.5s-.45-.84-1-.5c-.55.34-1 .115-1-.5s-.45-.84-1-.5c-.55.34-1 .115-1-.5s-.45-.84-1-.5c-.55.34-1 .115-1-.5s-.45-.84-1-.5c-.55.34-1 .115-1-.5s-.45-.84-1-.5c-.55.34-1 .115-1-.5s-.45-.84-1-.5c-.55.34-1 .115-1-.5s-.45-.84-1-.5c-.55.34-1 .115-1-.5s-.45-.84-1-.5c-.55.34-1 .115-1-.5s-.45-.84-1-.5c-.55.34-1 .115-1-.5s-.45-.84-1-.5c-.55.34-1 .115-1-.5s-.45-.84-1-.5c-.55.34-1 .115-1-.5s-.45-.84-1-.5c-.55.34-1 .115-1-.5s-.45-.84-1-.5c-.55.34-1 .115-1-.5s-.45-.84-1-.5c-.55.34-1 .115-1-.5s-.45-.84-1-.5c-.55.34-1 .115-1-.5s-.45-.84-1-.5c-.55.34-1 .115-1-.5s-.45-.84-1-.5c-.55.34-1 .115-1-.5s-.45-.84-1-.5c-.55.34-1 .231-1-.241S47.875 1.4 46.5 1.4s-2.5.387-2.5.859m7 176.174c0 67.576.189 77.567 1.47 77.567.808 0 16.221-7.583 34.25-16.852 57.564-29.593 108.03-55.606 134.78-69.473l26-13.479.267-25.598c.147-14.079.028-25.598-.264-25.598-.514 0-78.677 39.703-134.092 68.112C98.512 180.751 86.025 187 85.661 187c-.363 0-.661-15.747-.661-34.994v-34.993l-14.75-7.373c-8.112-4.055-15.763-7.688-17-8.074l-2.25-.701v77.568" fill="#1976D2" fill-rule="evenodd"/><path fill-opacity=".203" d="M52.012 178.516c-.019 42.616.251 77.484.601 77.484.611 0 48.225-24.261 76.387-38.922 7.425-3.866 37.238-19.298 66.25-34.295L248 155.517v-25.342c0-13.938-.352-25.192-.783-25.008-1.3.553-86.256 43.883-124.484 63.489C103.061 178.745 86.524 187 85.983 187c-.625 0-.983-12.652-.983-34.764v-34.764l-16.476-8.22-16.476-8.22-.036 77.484" fill="#1976D2" fill-rule="evenodd"/></svg>