<svg xmlns="http://www.w3.org/2000/svg" width="256" height="256"><path fill-opacity=".016" d="M0 128.004v128.004l128.25-.254 128.25-.254.254-127.75L257.008 0H0v128.004m.485.496c0 70.4.119 99.053.265 63.672.146-35.38.146-92.98 0-128C.604 29.153.485 58.1.485 128.5" fill="#1976D2" fill-rule="evenodd"/><path fill-opacity=".195" d="M42.5 1.825c-1.65 1-5.7 3.289-9 5.087-12.808 6.977-22.487 12.61-22.493 13.091-.004.276 36.026 18.518 80.067 40.536l80.073 40.033-12.214 6.34c-6.718 3.486-20.838 10.895-31.377 16.464-10.54 5.568-23.521 12.374-28.847 15.124l-9.684 5-.013 18.25c-.006 10.037.305 18.25.693 18.25.388 0 20.75-10.298 45.25-22.885 24.5-12.587 59.282-30.401 77.295-39.585 18.012-9.185 32.75-17.111 32.75-17.614C245 99.069 47.921-.005 46.252.004c-.414.002-2.102.822-3.752 1.821M51 178.433c0 73.209.098 77.567 1.75 77.561 1.582-.006 192.7-98.154 194.517-99.894.422-.404.647-12.179.5-26.167L247.5 104.5 224 116.526C164.256 147.099 85.793 187 85.417 187c-.23 0-.417-15.747-.417-34.994v-34.993l-14.75-7.373c-8.112-4.055-15.763-7.688-17-8.074l-2.25-.701v77.568" fill="#1976D2" fill-rule="evenodd"/><path fill-opacity=".074" d="M40.905 3.221c-2.973 1.688-5.68 3.492-6.017 4.009-.336.518-.92.864-1.297.77C32.718 7.782 12 19.281 12 19.983c0 .288 35.835 18.439 79.634 40.336 56.322 28.158 79.322 40.125 78.569 40.878-.586.586-10.694 6.068-22.463 12.184a24745.042 24745.042 0 00-39.486 20.569l-18.089 9.451-.119 17.218c-.066 9.469.265 17.455.735 17.746.47.29 17.924-8.257 38.787-18.993a27403.654 27403.654 0 0176.182-39.024C226.787 109.622 244 100.431 244 99.924c0-.507-44.48-23.163-98.845-50.347L46.309.153l-5.404 3.068M51.762 178.5c.144 42.625.544 77.5.889 77.5.576 0 46.932-23.734 113.849-58.289 14.85-7.668 39.262-20.221 54.25-27.894L248 155.864v-25.515c0-14.034-.352-25.366-.783-25.182-1.3.553-86.256 43.883-124.484 63.489C103.061 178.745 86.524 187 85.983 187c-.625 0-.983-12.652-.983-34.764v-34.764l-16.508-8.236c-9.079-4.53-16.617-8.236-16.75-8.236-.133 0-.124 34.875.02 77.5" fill="#1976D2" fill-rule="evenodd"/><path fill-opacity=".129" d="M53.079 179.436c.043 42.385.307 76.499.585 75.808.279-.691.918-1.002 1.421-.691.503.311.915.062.915-.553s.45-.84 1-.5c.55.34 1 .115 1-.5s.45-.84 1-.5c.55.34 1 .115 1-.5s.45-.84 1-.5c.55.34 1 .115 1-.5s.45-.84 1-.5c.55.34 1 .115 1-.5s.45-.84 1-.5c.55.34 1 .115 1-.5s.45-.84 1-.5c.55.34 1 .232 1-.241 0-.472 3.713-2.636 8.25-4.809 4.537-2.172 8.401-4.29 8.585-4.706.185-.416.747-.502 1.25-.191s.915.062.915-.553.45-.84 1-.5c.55.34 1 .115 1-.5s.45-.84 1-.5c.55.34 1 .115 1-.5s.45-.84 1-.5c.55.34 1 .115 1-.5s.45-.84 1-.5c.55.34 1 .115 1-.5s.45-.84 1-.5c.55.34 1 .115 1-.5s.412-.864.915-.553c.503.311 1.065.168 1.25-.318.399-1.051 15.003-8.612 16.085-8.327.412.109.75-.279.75-.861s.45-.781 1-.441 1 .115 1-.5.45-.84 1-.5c.55.34 1 .115 1-.5s.45-.84 1-.5c.55.34 1 .115 1-.5s.412-.864.915-.553c.503.311 1.065.146 1.25-.366.184-.512 1.01-1.077 1.835-1.256.825-.179 1.725-.605 2-.948.824-1.026 15.439-8.288 16.25-8.075.412.109.75-.279.75-.861s.45-.781 1-.441 1 .115 1-.5.45-.84 1-.5c.55.34 1 .115 1-.5s.45-.84 1-.5c.55.34 1 .115 1-.5s.45-.84 1-.5c.55.34 1 .115 1-.5s.45-.84 1-.5c.55.34 1 .115 1-.5s.45-.84 1-.5c.55.34 1 .232 1-.241 0-.472 3.713-2.636 8.25-4.809 4.537-2.172 8.401-4.29 8.585-4.706.185-.416.747-.502 1.25-.191s.915.062.915-.553.45-.84 1-.5c.55.34 1 .115 1-.5s.45-.84 1-.5c.55.34 1 .115 1-.5s.45-.84 1-.5c.55.34 1 .115 1-.5s.45-.84 1-.5c.55.34 1 .066 1-.608 0-.674.279-.947.619-.606.341.34 1.277-.039 2.081-.843.804-.804 1.875-1.206 2.381-.893.505.312.919.065.919-.55s.45-.84 1-.5c.55.34 1 .115 1-.5s.45-.84 1-.5c.55.34 1 .115 1-.5s.45-.84 1-.5c.55.34 1 .115 1-.5s.45-.84 1-.5c.55.34 1 .066 1-.608 0-.674.273-.952.606-.619.334.334 1.527-.251 2.652-1.299 1.125-1.047 2.427-1.669 2.893-1.38.467.288.849.021.849-.594s.45-.84 1-.5c.55.34 1 .115 1-.5s.45-.84 1-.5c.55.34 1 .115 1-.5s.45-.84 1-.5c.55.34 1 .115 1-.5s.45-.84 1-.5c.55.34 1 .115 1-.5s.45-.84 1-.5c.55.34 1 .115 1-.5s.45-.84 1-.5c.55.34 1 .232 1-.241 0-.472 3.713-2.636 8.25-4.809 4.537-2.172 8.401-4.29 8.585-4.706.185-.416.747-.502 1.25-.191s.915.062.915-.553.45-.84 1-.5c.55.34 1 .115 1-.5s.45-.84 1-.5c.55.34 1 .115 1-.5s.45-.84 1-.5c.55.34 1 .115 1-.5s.45-.84 1-.5c.55.34 1 .115 1-.5s.45-.84 1-.5c.55.34 1 .115 1-.5s.45-.84 1-.5c.657.406 1-8.001 1-24.476 0-24.196-.067-25.059-1.869-24.094-1.027.55-2.152.715-2.5.368-.347-.347-.631-.08-.631.594 0 .674-.45.948-1 .608-.55-.34-1-.115-1 .5s-.45.84-1 .5c-.55-.34-1-.115-1 .5s-.45.84-1 .5c-.55-.34-1-.115-1 .5s-.45.84-1 .5c-.55-.34-1-.115-1 .5s-.45.84-1 .5c-.55-.34-1-.115-1 .5s-.45.84-1 .5c-.55-.34-1-.115-1 .5s-.45.84-1 .5c-.55-.34-1-.115-1 .5s-.45.84-1 .5c-.55-.34-1-.115-1 .5s-.45.84-1 .5c-.55-.34-1-.238-1 .227 0 .465-5.062 3.304-11.25 6.309-6.187 3.005-11.401 5.804-11.585 6.22-.185.416-.747.502-1.25.191s-.915-.062-.915.553-.45.84-1 .5c-.55-.34-1-.115-1 .5s-.45.84-1 .5c-.55-.34-1-.115-1 .5s-.45.84-1 .5c-.55-.34-1-.115-1 .5s-.45.84-1 .5c-.55-.34-1-.115-1 .5s-.45.84-1 .5c-.55-.34-1-.115-1 .5s-.45.84-1 .5c-.55-.34-1-.115-1 .5s-.45.84-1 .5c-.55-.34-1-.115-1 .5s-.45.84-1 .5c-.55-.34-1-.115-1 .5s-.45.84-1 .5c-.55-.34-1-.236-1 .231 0 .467-4.613 3.081-10.25 5.809s-10.401 5.3-10.585 5.716c-.185.416-.747.502-1.25.191s-.915-.062-.915.553-.45.84-1 .5c-.55-.34-1-.115-1 .5s-.45.84-1 .5c-.55-.34-1-.115-1 .5s-.45.84-1 .5c-.55-.34-1-.115-1 .5s-.45.84-1 .5c-.55-.34-1-.115-1 .5s-.45.84-1 .5c-.55-.34-1-.115-1 .5s-.45.84-1 .5c-.55-.34-1-.115-1 .5s-.45.84-1 .5c-.55-.34-1-.115-1 .5s-.45.84-1 .5c-.55-.34-1-.115-1 .5s-.45.84-1 .5c-.55-.34-1-.115-1 .5s-.45.84-1 .5c-.55-.34-1-.115-1 .5s-.45.84-1 .5c-.55-.34-1-.115-1 .5s-.45.84-1 .5c-.55-.34-1-.115-1 .5s-.45.84-1 .5c-.55-.34-1-.115-1 .5s-.45.84-1 .5c-.55-.34-1-.115-1 .5s-.45.84-1 .5c-.55-.34-1-.115-1 .5s-.45.84-1 .5c-.55-.34-1-.115-1 .5s-.45.84-1 .5c-.55-.34-1-.115-1 .5s-.45.84-1 .5c-.55-.34-1-.115-1 .5s-.412.864-.915.553c-.503-.311-1.065-.167-1.25.32-.397 1.05-18.995 10.608-20.085 10.323-.412-.108-.75.281-.75.863s-.45.781-1 .441-1-.115-1 .5-.45.84-1 .5c-.55-.34-1-.115-1 .5s-.45.84-1 .5c-.55-.34-1-.115-1 .5s-.45.84-1 .5c-.55-.34-1-.115-1 .5s-.45.84-1 .5c-.55-.34-1-.115-1 .5s-.45.84-1 .5c-.55-.34-1-.184-1 .347 0 .531-.9.73-2 .443-1.951-.51-2-1.364-2-34.873v-34.35l-15.5-7.847-15.5-7.848.079 77.064" fill="#1976D2" fill-rule="evenodd"/></svg>